<?xml version="1.0" encoding="utf-8"?>
<svg version="1.1" id="Layer_1" xmlns="http://www.w3.org/2000/svg" xmlns:xlink="http://www.w3.org/1999/xlink" x="0px" y="0px"
	 viewBox="0 0 187.6 145.9" style="enable-background:new 0 0 187.6 145.9;" xml:space="preserve">
<style type="text/css">
	.st0{fill:#3A4757;}
	.st1{fill:#F7941E;}
	.st2{fill:#BFD730;}
	.st3{fill:#00BAD9;}
</style>
<path class="st0" d="M187.6,145.9c0-43.3,0-86.6,0-129.9c-0.3-8.5-0.6-21.3-19.5-13.6c-31.6,11.5-63.3,22.7-94.6,35
	c-23.7,9.3-49.7,19.5-63,69.4C7,119.8,3.5,132.8,0,145.9c10,0,20.1,0,30.1,0c2.8-10.6,5.7-21.1,8.5-31.7
	c9.6-35.7,28.4-43.1,45.5-49.8c24.6-9.7,49.6-18.5,74.4-27.6c0,36.4,0,72.8,0,109.1C168.2,145.9,177.9,145.9,187.6,145.9
	L187.6,145.9z"/>
<path class="st1" d="M72.7,78.4c-3.1,1.7-6,3.7-8.8,6.1c-9.3,8.2-14.3,20-17.4,31.8l-7.9,29.6h34.1V78.4L72.7,78.4z"/>
<path class="st2" d="M110.7,63c-7.9,2.9-15.8,5.9-23.6,9c-2.1,0.8-4.2,1.6-6.2,2.5v71.4h29.8L110.7,63L110.7,63z"/>
<path class="st3" d="M150.3,145.9c0-32.5,0-65,0-97.4c-10.5,3.8-21,7.6-31.4,11.5v86H150.3L150.3,145.9z"/>
</svg>
